<svg width="242" height="43" viewBox="0 0 242 43" fill="none" xmlns="http://www.w3.org/2000/svg">
<g clip-path="url(#clip0_420_10590)">
<path d="M57.3949 10.1474L47.5204 0H9.85013L0 10.1474L28.6146 40L57.3949 10.1474Z" fill="#9BA8AD"/>
<path d="M1.16486 10.1667L10.5812 0.691895H46.9843L56.4055 10.1667H1.16486Z" fill="#C8CDCF"/>
<path d="M46.9843 0.692092L47.5204 0L57.3949 10.1474H55.9522L46.9843 0.692092Z" fill="#DDDFE1"/>
<path d="M55.9522 10.1472L10.5812 0.691895H46.9843L55.9522 10.1472Z" fill="#BAC3C7"/>
<path d="M1.16486 10.2401L28.4294 37.0562L56.4055 10.167L1.16486 10.2401Z" fill="#C8CDCF"/>
<path d="M57.3949 10.1475H55.9522L26.3921 34.0831L27.4741 37.0465L28.6146 40L57.3949 10.1475Z" fill="white"/>
<path d="M55.9522 10.1475L50.5666 14.4998C50.5666 14.4998 36.0229 14.4998 27.864 16.4689C19.788 18.4185 13.5884 22.4735 13.5884 22.4735L1.08688 10.167L55.9522 10.1475Z" fill="#BAC3C7"/>
<path d="M28.1906 38.4014L28.6146 40L57.3949 10.1475L28.1906 38.4014Z" fill="#BAC3C7"/>
<path d="M39.0983 23.9603L18.4964 13.3206L28.6146 40.0002L16.6199 13.3206L13.1936 17.1807L15.0847 12.1508L0.160828 10.1574H14.8215L11.322 2.78809L16.2934 8.87558L22.9852 0.390137L18.5159 8.75373L32.4747 1.38928L19.8562 10.1574H56.8539L19.8562 11.951L39.0983 23.9603Z" fill="white"/>
</g>
<path d="M70.5849 15.9999V10.4749C70.5849 9.1716 70.9306 8.17993 71.6219 7.49993C72.3132 6.8086 73.4069 6.46293 74.9029 6.46293C76.4102 6.46293 77.4982 6.8086 78.1669 7.49993C78.8469 8.17993 79.1869 9.1716 79.1869 10.4749V15.9999H76.6539V10.4409C76.6539 9.84027 76.5122 9.36993 76.2289 9.02993C75.9569 8.6786 75.5036 8.50293 74.8689 8.50293C74.2456 8.50293 73.7922 8.6786 73.5089 9.02993C73.2369 9.36993 73.1009 9.84027 73.1009 10.4409V11.9199L73.1519 11.9369C73.3672 11.4949 73.6222 11.2059 73.9169 11.0699C74.2229 10.9226 74.6366 10.8489 75.1579 10.8489H75.5489V12.7529H75.1579C74.5912 12.7529 74.1606 12.8493 73.8659 13.0419C73.5712 13.2346 73.3672 13.4896 73.2539 13.8069C73.1519 14.1129 73.1009 14.4586 73.1009 14.8439V15.9999H70.5849Z" fill="#F8F8F8"/>
<path d="M71.1233 5.39193V4.32093L72.8403 3.60693H78.9093V5.39193H71.1233Z" fill="#F8F8F8"/>
<path d="M84.9241 16.1699C84.0061 16.1699 83.2751 15.9716 82.7311 15.5749C82.1871 15.1669 81.7961 14.6116 81.5581 13.9089C81.3201 13.1949 81.2011 12.3789 81.2011 11.4609C81.2011 10.4749 81.3088 9.65893 81.5241 9.01293C81.7508 8.3556 82.0681 7.8456 82.4761 7.48293C82.8841 7.10893 83.3658 6.84827 83.9211 6.70093C84.4878 6.54227 85.1055 6.46293 85.7741 6.46293C86.7941 6.46293 87.6101 6.6046 88.2221 6.88793C88.8341 7.17127 89.2761 7.5736 89.5481 8.09493C89.8315 8.61627 89.9731 9.22827 89.9731 9.93093V15.9999H87.4231V10.1349C87.4231 9.60227 87.2928 9.19993 87.0321 8.92793C86.7828 8.6446 86.3635 8.50293 85.7741 8.50293C85.3775 8.50293 85.0261 8.58793 84.7201 8.75793C84.4255 8.9166 84.1931 9.2056 84.0231 9.62493C83.8645 10.0443 83.7851 10.6449 83.7851 11.4269C83.7851 11.9596 83.8361 12.4299 83.9381 12.8379C84.0401 13.2459 84.2045 13.5633 84.4311 13.7899C84.6691 14.0166 84.9865 14.1299 85.3831 14.1299C85.5078 14.1299 85.6268 14.1243 85.7401 14.1129C85.8648 14.0903 85.9725 14.0676 86.0631 14.0449L86.3011 15.9489C86.1198 16.0283 85.8988 16.0849 85.6381 16.1189C85.3888 16.1529 85.1508 16.1699 84.9241 16.1699Z" fill="#F8F8F8"/>
<path d="M94.9675 16.1699C94.4575 16.1699 94.0269 16.0906 93.6755 15.9319C93.3242 15.7733 93.0579 15.5353 92.8765 15.2179C92.6952 14.8893 92.6045 14.4813 92.6045 13.9939V6.68393H95.1545V13.6879C95.1545 13.9033 95.1999 14.0619 95.2905 14.1639C95.3925 14.2659 95.5455 14.3169 95.7495 14.3169C95.8402 14.3169 95.9365 14.3056 96.0385 14.2829C96.1405 14.2603 96.2369 14.2319 96.3275 14.1979L96.5655 15.8299C96.3502 15.9433 96.1065 16.0283 95.8345 16.0849C95.5625 16.1416 95.2735 16.1699 94.9675 16.1699ZM100.085 16.1699C99.5745 16.1699 99.1439 16.0906 98.7925 15.9319C98.4412 15.7733 98.1749 15.5353 97.9935 15.2179C97.8122 14.8893 97.7215 14.4813 97.7215 13.9939V6.68393H100.272V13.6879C100.272 13.9033 100.317 14.0619 100.408 14.1639C100.51 14.2659 100.663 14.3169 100.867 14.3169C100.957 14.3169 101.054 14.3056 101.156 14.2829C101.258 14.2603 101.354 14.2319 101.445 14.1979L101.683 15.8299C101.467 15.9433 101.224 16.0283 100.952 16.0849C100.68 16.1416 100.391 16.1699 100.085 16.1699Z" fill="#F8F8F8"/>
<path d="M107.34 16.2209C105.866 16.2209 104.795 15.8809 104.127 15.2009C103.469 14.5096 103.141 13.5123 103.141 12.2089V6.68393H105.691V12.3449C105.691 12.9456 105.821 13.4046 106.082 13.7219C106.354 14.0279 106.773 14.1809 107.34 14.1809C107.906 14.1809 108.32 14.0279 108.581 13.7219C108.853 13.4046 108.989 12.9456 108.989 12.3449V6.68393H111.539V12.2089C111.539 13.5123 111.204 14.5096 110.536 15.2009C109.878 15.8809 108.813 16.2209 107.34 16.2209Z" fill="#F8F8F8"/>
<path d="M118.114 16.2209C116.641 16.2209 115.57 15.8809 114.901 15.2009C114.244 14.5096 113.915 13.5123 113.915 12.2089V6.68393H116.465V12.3449C116.465 12.9456 116.595 13.4046 116.856 13.7219C117.128 14.0279 117.547 14.1809 118.114 14.1809C118.681 14.1809 119.094 14.0279 119.355 13.7219C119.627 13.4046 119.763 12.9456 119.763 12.3449V6.68393H122.313V12.2089C122.313 13.5123 121.979 14.5096 121.31 15.2009C120.653 15.8809 119.587 16.2209 118.114 16.2209Z" fill="#F8F8F8"/>
<path d="M75.8889 36.9999V30.9479C75.8889 30.4039 75.7416 30.0129 75.4469 29.7749C75.1522 29.5369 74.6989 29.4179 74.0869 29.4179C73.4976 29.4179 72.9196 29.5086 72.3529 29.6899C71.7976 29.8599 71.3159 30.0639 70.9079 30.3019V28.1939C71.2366 28.0353 71.7012 27.8766 72.3019 27.7179C72.9026 27.5479 73.5939 27.4629 74.3759 27.4629C74.9766 27.4629 75.5149 27.5366 75.9909 27.6839C76.4782 27.8313 76.8296 28.1203 77.0449 28.5509C77.5209 28.6983 77.8609 28.9873 78.0649 29.4179C78.2802 29.8373 78.3879 30.3813 78.3879 31.0499V36.9999H75.8889ZM73.1009 37.1699C72.1262 37.1699 71.3726 36.9376 70.8399 36.4729C70.3186 36.0083 70.0579 35.3566 70.0579 34.5179C70.0579 33.6113 70.3809 32.8859 71.0269 32.3419C71.6842 31.7979 72.7156 31.4693 74.1209 31.3559L76.2969 31.1859V33.0219L74.4099 33.2089C73.7299 33.2769 73.2539 33.4129 72.9819 33.6169C72.7212 33.8209 72.5909 34.0929 72.5909 34.4329C72.5909 34.7729 72.6986 35.0279 72.9139 35.1979C73.1406 35.3679 73.4296 35.4529 73.7809 35.4529C73.9169 35.4529 74.0529 35.4416 74.1889 35.4189C74.3249 35.3849 74.4496 35.3509 74.5629 35.3169L74.7839 36.9149C74.5686 36.9943 74.3136 37.0566 74.0189 37.1019C73.7242 37.1473 73.4182 37.1699 73.1009 37.1699ZM76.9939 29.5369L75.5999 28.3639C75.9966 28.2279 76.3082 28.0579 76.5349 27.8539C76.7616 27.6386 76.8806 27.3779 76.8919 27.0719H79.1189C79.1189 27.4233 79.0452 27.7633 78.8979 28.0919C78.7619 28.4093 78.5352 28.6926 78.2179 28.9419C77.9119 29.1913 77.5039 29.3896 76.9939 29.5369Z" fill="#F8F8F8"/>
<path d="M84.0075 37.2209C83.3388 37.2209 82.6645 37.1473 81.9845 36.9999C81.3158 36.8526 80.7208 36.6429 80.1995 36.3709L80.9135 34.3479C81.1401 34.4726 81.4121 34.6029 81.7295 34.7389C82.0468 34.8749 82.3925 34.9883 82.7665 35.0789C83.1405 35.1696 83.5201 35.2149 83.9055 35.2149C84.3588 35.2149 84.6988 35.1526 84.9255 35.0279C85.1635 34.8919 85.2825 34.6879 85.2825 34.4159C85.2825 34.2119 85.2031 34.0476 85.0445 33.9229C84.8971 33.7869 84.6761 33.6623 84.3815 33.5489C84.0868 33.4243 83.7355 33.2939 83.3275 33.1579C82.7268 32.9426 82.2111 32.7103 81.7805 32.4609C81.3498 32.2116 81.0155 31.9056 80.7775 31.5429C80.5508 31.1803 80.4375 30.7269 80.4375 30.1829C80.4375 29.5596 80.5961 29.0496 80.9135 28.6529C81.2308 28.2563 81.6785 27.9616 82.2565 27.7689C82.8345 27.5649 83.5088 27.4629 84.2795 27.4629C84.9141 27.4629 85.4865 27.5139 85.9965 27.6159C86.5065 27.7179 86.9031 27.8483 87.1865 28.0069V30.0129C86.9938 29.9223 86.7388 29.8316 86.4215 29.7409C86.1155 29.6503 85.7811 29.5766 85.4185 29.5199C85.0671 29.4519 84.7271 29.4179 84.3985 29.4179C83.9338 29.4179 83.5825 29.4803 83.3445 29.6049C83.1065 29.7296 82.9875 29.9053 82.9875 30.1319C82.9875 30.3133 83.0668 30.4663 83.2255 30.5909C83.3955 30.7156 83.6391 30.8346 83.9565 30.9479C84.2738 31.0499 84.6535 31.1803 85.0955 31.3389C85.6848 31.5429 86.1835 31.7696 86.5915 32.0189C86.9995 32.2683 87.3055 32.5743 87.5095 32.9369C87.7248 33.2996 87.8325 33.7473 87.8325 34.2799C87.8325 34.7899 87.7135 35.2716 87.4755 35.7249C87.2488 36.1669 86.8578 36.5296 86.3025 36.8129C85.7471 37.0849 84.9821 37.2209 84.0075 37.2209Z" fill="#F8F8F8"/>
<path d="M82.1425 26.4089V25.5589C82.3012 25.5136 82.4768 25.4513 82.6695 25.3719C82.8622 25.2926 83.0322 25.1849 83.1795 25.0489C83.3268 24.9129 83.4005 24.7429 83.4005 24.5389C83.4005 24.3803 83.3552 24.2556 83.2645 24.1649C83.1738 24.0743 83.0605 24.0289 82.9245 24.0289C82.8338 24.0289 82.7375 24.0459 82.6355 24.0799C82.5335 24.1139 82.4428 24.1479 82.3635 24.1819L82.0405 23.0429C82.2672 22.8503 82.5505 22.7256 82.8905 22.6689C83.2192 22.6009 83.4968 22.5669 83.7235 22.5669C84.2335 22.5669 84.6358 22.6859 84.9305 22.9239C85.2138 23.1619 85.3555 23.5133 85.3555 23.9779C85.3555 24.2273 85.2932 24.4596 85.1685 24.6749C85.0325 24.8903 84.8285 25.0659 84.5565 25.2019L84.4885 24.7599H87.7015V26.4089H82.1425Z" fill="#F8F8F8"/>
<path d="M92.0753 36.9999V30.8459C92.0753 30.3699 91.9619 30.0243 91.7353 29.8089C91.5199 29.5936 91.1629 29.4859 90.6643 29.4859C90.2903 29.4859 89.9446 29.5369 89.6273 29.6389C89.3213 29.7409 89.0323 29.8656 88.7603 30.0129V27.9729C89.0096 27.8596 89.3609 27.7463 89.8143 27.6329C90.2676 27.5196 90.8003 27.4629 91.4123 27.4629C92.0356 27.4629 92.5853 27.5536 93.0613 27.7349C93.5486 27.9163 93.9283 28.2223 94.2003 28.6529C94.4836 29.0723 94.6253 29.6503 94.6253 30.3869V36.9999H92.0753Z" fill="#F8F8F8"/>
<path d="M98.596 36.9999L95.893 27.6839H98.46L100.517 34.9429H100.619C100.8 34.9429 100.97 34.8919 101.129 34.7899C101.288 34.6879 101.424 34.5519 101.537 34.3819C101.764 34.0646 101.934 33.6906 102.047 33.2599C102.16 32.8179 102.217 32.3816 102.217 31.9509C102.217 31.1916 102.07 30.6079 101.775 30.1999C101.492 29.7919 101.095 29.5879 100.585 29.5879C100.483 29.5879 100.387 29.5936 100.296 29.6049C100.217 29.6163 100.143 29.6389 100.075 29.6729L99.599 27.7179C99.8596 27.6386 100.103 27.5933 100.33 27.5819C100.568 27.5593 100.761 27.5479 100.908 27.5479C101.509 27.5479 102.03 27.6273 102.472 27.7859C102.914 27.9446 103.294 28.1826 103.611 28.4999C104.008 28.8853 104.302 29.3669 104.495 29.9449C104.699 30.5229 104.801 31.1746 104.801 31.8999C104.801 32.8179 104.654 33.6226 104.359 34.3139C104.076 34.9939 103.73 35.5323 103.322 35.9289C102.982 36.2576 102.551 36.5183 102.03 36.7109C101.52 36.9036 100.817 36.9999 99.922 36.9999H98.596Z" fill="#F8F8F8"/>
<path d="M112.014 36.9999V30.9479C112.014 30.4039 111.867 30.0129 111.572 29.7749C111.277 29.5369 110.824 29.4179 110.212 29.4179C109.623 29.4179 109.045 29.5086 108.478 29.6899C107.923 29.8599 107.441 30.0639 107.033 30.3019V28.1939C107.362 28.0353 107.826 27.8766 108.427 27.7179C109.028 27.5479 109.719 27.4629 110.501 27.4629C111.102 27.4629 111.64 27.5366 112.116 27.6839C112.603 27.8313 112.955 28.1203 113.17 28.5509C113.646 28.6983 113.986 28.9873 114.19 29.4179C114.405 29.8373 114.513 30.3813 114.513 31.0499V36.9999H112.014ZM109.226 37.1699C108.251 37.1699 107.498 36.9376 106.965 36.4729C106.444 36.0083 106.183 35.3566 106.183 34.5179C106.183 33.6113 106.506 32.8859 107.152 32.3419C107.809 31.7979 108.841 31.4693 110.246 31.3559L112.422 31.1859V33.0219L110.535 33.2089C109.855 33.2769 109.379 33.4129 109.107 33.6169C108.846 33.8209 108.716 34.0929 108.716 34.4329C108.716 34.7729 108.824 35.0279 109.039 35.1979C109.266 35.3679 109.555 35.4529 109.906 35.4529C110.042 35.4529 110.178 35.4416 110.314 35.4189C110.45 35.3849 110.575 35.3509 110.688 35.3169L110.909 36.9149C110.694 36.9943 110.439 37.0566 110.144 37.1019C109.849 37.1473 109.543 37.1699 109.226 37.1699ZM113.119 29.5369L111.725 28.3639C112.122 28.2279 112.433 28.0579 112.66 27.8539C112.887 27.6386 113.006 27.3779 113.017 27.0719H115.244C115.244 27.4233 115.17 27.7633 115.023 28.0919C114.887 28.4093 114.66 28.6926 114.343 28.9419C114.037 29.1913 113.629 29.3896 113.119 29.5369Z" fill="#F8F8F8"/>
<path d="M120.132 37.2209C119.464 37.2209 118.789 37.1473 118.109 36.9999C117.441 36.8526 116.846 36.6429 116.324 36.3709L117.038 34.3479C117.265 34.4726 117.537 34.6029 117.854 34.7389C118.172 34.8749 118.517 34.9883 118.891 35.0789C119.265 35.1696 119.645 35.2149 120.03 35.2149C120.484 35.2149 120.824 35.1526 121.05 35.0279C121.288 34.8919 121.407 34.6879 121.407 34.4159C121.407 34.2119 121.328 34.0476 121.169 33.9229C121.022 33.7869 120.801 33.6623 120.506 33.5489C120.212 33.4243 119.86 33.2939 119.452 33.1579C118.852 32.9426 118.336 32.7103 117.905 32.4609C117.475 32.2116 117.14 31.9056 116.902 31.5429C116.676 31.1803 116.562 30.7269 116.562 30.1829C116.562 29.5596 116.721 29.0496 117.038 28.6529C117.356 28.2563 117.803 27.9616 118.381 27.7689C118.959 27.5649 119.634 27.4629 120.404 27.4629C121.039 27.4629 121.611 27.5139 122.121 27.6159C122.631 27.7179 123.028 27.8483 123.311 28.0069V30.0129C123.119 29.9223 122.864 29.8316 122.546 29.7409C122.24 29.6503 121.906 29.5766 121.543 29.5199C121.192 29.4519 120.852 29.4179 120.523 29.4179C120.059 29.4179 119.707 29.4803 119.469 29.6049C119.231 29.7296 119.112 29.9053 119.112 30.1319C119.112 30.3133 119.192 30.4663 119.35 30.5909C119.52 30.7156 119.764 30.8346 120.081 30.9479C120.399 31.0499 120.778 31.1803 121.22 31.3389C121.81 31.5429 122.308 31.7696 122.716 32.0189C123.124 32.2683 123.43 32.5743 123.634 32.9369C123.85 33.2996 123.957 33.7473 123.957 34.2799C123.957 34.7899 123.838 35.2716 123.6 35.7249C123.374 36.1669 122.983 36.5296 122.427 36.8129C121.872 37.0849 121.107 37.2209 120.132 37.2209Z" fill="#F8F8F8"/>
<path d="M128.931 37.2209C128.263 37.2209 127.588 37.1473 126.908 36.9999C126.24 36.8526 125.645 36.6429 125.123 36.3709L125.837 34.3479C126.064 34.4726 126.336 34.6029 126.653 34.7389C126.971 34.8749 127.316 34.9883 127.69 35.0789C128.064 35.1696 128.444 35.2149 128.829 35.2149C129.283 35.2149 129.623 35.1526 129.849 35.0279C130.087 34.8919 130.206 34.6879 130.206 34.4159C130.206 34.2119 130.127 34.0476 129.968 33.9229C129.821 33.7869 129.6 33.6623 129.305 33.5489C129.011 33.4243 128.659 33.2939 128.251 33.1579C127.651 32.9426 127.135 32.7103 126.704 32.4609C126.274 32.2116 125.939 31.9056 125.701 31.5429C125.475 31.1803 125.361 30.7269 125.361 30.1829C125.361 29.5596 125.52 29.0496 125.837 28.6529C126.155 28.2563 126.602 27.9616 127.18 27.7689C127.758 27.5649 128.433 27.4629 129.203 27.4629C129.838 27.4629 130.41 27.5139 130.92 27.6159C131.43 27.7179 131.827 27.8483 132.11 28.0069V30.0129C131.918 29.9223 131.663 29.8316 131.345 29.7409C131.039 29.6503 130.705 29.5766 130.342 29.5199C129.991 29.4519 129.651 29.4179 129.322 29.4179C128.858 29.4179 128.506 29.4803 128.268 29.6049C128.03 29.7296 127.911 29.9053 127.911 30.1319C127.911 30.3133 127.991 30.4663 128.149 30.5909C128.319 30.7156 128.563 30.8346 128.88 30.9479C129.198 31.0499 129.577 31.1803 130.019 31.3389C130.609 31.5429 131.107 31.7696 131.515 32.0189C131.923 32.2683 132.229 32.5743 132.433 32.9369C132.649 33.2996 132.756 33.7473 132.756 34.2799C132.756 34.7899 132.637 35.2716 132.399 35.7249C132.173 36.1669 131.782 36.5296 131.226 36.8129C130.671 37.0849 129.906 37.2209 128.931 37.2209Z" fill="#F8F8F8"/>
<path d="M134.534 36.9999V31.4749C134.534 30.1716 134.88 29.1799 135.571 28.4999C136.262 27.8086 137.356 27.4629 138.852 27.4629C140.359 27.4629 141.447 27.8086 142.116 28.4999C142.796 29.1799 143.136 30.1716 143.136 31.4749V36.9999H140.603V31.4409C140.603 30.8403 140.461 30.3699 140.178 30.0299C139.906 29.6786 139.453 29.5029 138.818 29.5029C138.195 29.5029 137.741 29.6786 137.458 30.0299C137.186 30.3699 137.05 30.8403 137.05 31.4409V32.9199L137.101 32.9369C137.316 32.4949 137.571 32.2059 137.866 32.0699C138.172 31.9226 138.586 31.8489 139.107 31.8489H139.498V33.7529H139.107C138.54 33.7529 138.11 33.8493 137.815 34.0419C137.52 34.2346 137.316 34.4896 137.203 34.8069C137.101 35.1129 137.05 35.4586 137.05 35.8439V36.9999H134.534Z" fill="#F8F8F8"/>
<path d="M139.697 26.7659C139.606 26.6073 139.532 26.4033 139.476 26.1539C139.408 25.9046 139.374 25.6553 139.374 25.4059C139.374 25.0886 139.436 24.7996 139.561 24.5389C139.674 24.2783 139.884 24.0743 140.19 23.9269C140.484 23.7683 140.892 23.6889 141.414 23.6889H143.879V25.4059H142.247C142.031 25.4059 141.867 25.4456 141.754 25.5249C141.629 25.5929 141.567 25.7233 141.567 25.9159C141.567 25.9953 141.578 26.0803 141.601 26.1709C141.623 26.2503 141.657 26.3353 141.703 26.4259L139.697 26.7659Z" fill="#F8F8F8"/>
<path fill-rule="evenodd" clip-rule="evenodd" d="M166.395 11.5C166.395 10.9477 165.947 10.5 165.395 10.5C164.843 10.5 164.395 10.9477 164.395 11.5V20.5H155.395C154.843 20.5 154.395 20.9477 154.395 21.5C154.395 22.0523 154.843 22.5 155.395 22.5H164.395V31.5C164.395 32.0523 164.843 32.5 165.395 32.5C165.947 32.5 166.395 32.0523 166.395 31.5V22.5H175.395C175.947 22.5 176.395 22.0523 176.395 21.5C176.395 20.9477 175.947 20.5 175.395 20.5H166.395V11.5Z" fill="#6D7277"/>
<path d="M187.585 15.9999V10.4749C187.585 9.1716 187.931 8.17993 188.622 7.49993C189.313 6.8086 190.407 6.46293 191.903 6.46293C193.41 6.46293 194.498 6.8086 195.167 7.49993C195.847 8.17993 196.187 9.1716 196.187 10.4749V15.9999H193.654V10.4409C193.654 9.84027 193.512 9.36993 193.229 9.02993C192.957 8.6786 192.504 8.50293 191.869 8.50293C191.246 8.50293 190.792 8.6786 190.509 9.02993C190.237 9.36993 190.101 9.84027 190.101 10.4409V11.9199L190.152 11.9369C190.367 11.4949 190.622 11.2059 190.917 11.0699C191.223 10.9226 191.637 10.8489 192.158 10.8489H192.549V12.7529H192.158C191.591 12.7529 191.161 12.8493 190.866 13.0419C190.571 13.2346 190.367 13.4896 190.254 13.8069C190.152 14.1129 190.101 14.4586 190.101 14.8439V15.9999H187.585Z" fill="#F8F8F8"/>
<path d="M188.123 5.39193V4.32093L189.84 3.60693H195.909V5.39193H188.123Z" fill="#F8F8F8"/>
<path d="M201.924 16.1699C201.006 16.1699 200.275 15.9716 199.731 15.5749C199.187 15.1669 198.796 14.6116 198.558 13.9089C198.32 13.1949 198.201 12.3789 198.201 11.4609C198.201 10.4749 198.309 9.65893 198.524 9.01293C198.751 8.3556 199.068 7.8456 199.476 7.48293C199.884 7.10893 200.366 6.84827 200.921 6.70093C201.488 6.54227 202.105 6.46293 202.774 6.46293C203.794 6.46293 204.61 6.6046 205.222 6.88793C205.834 7.17127 206.276 7.5736 206.548 8.09493C206.831 8.61627 206.973 9.22827 206.973 9.93093V15.9999H204.423V10.1349C204.423 9.60227 204.293 9.19993 204.032 8.92793C203.783 8.6446 203.363 8.50293 202.774 8.50293C202.377 8.50293 202.026 8.58793 201.72 8.75793C201.425 8.9166 201.193 9.2056 201.023 9.62493C200.864 10.0443 200.785 10.6449 200.785 11.4269C200.785 11.9596 200.836 12.4299 200.938 12.8379C201.04 13.2459 201.204 13.5633 201.431 13.7899C201.669 14.0166 201.986 14.1299 202.383 14.1299C202.508 14.1299 202.627 14.1243 202.74 14.1129C202.865 14.0903 202.972 14.0676 203.063 14.0449L203.301 15.9489C203.12 16.0283 202.899 16.0849 202.638 16.1189C202.389 16.1529 202.151 16.1699 201.924 16.1699Z" fill="#F8F8F8"/>
<path d="M211.968 16.1699C211.458 16.1699 211.027 16.0906 210.676 15.9319C210.324 15.7733 210.058 15.5353 209.877 15.2179C209.695 14.8893 209.605 14.4813 209.605 13.9939V6.68393H212.155V13.6879C212.155 13.9033 212.2 14.0619 212.291 14.1639C212.393 14.2659 212.546 14.3169 212.75 14.3169C212.84 14.3169 212.937 14.3056 213.039 14.2829C213.141 14.2603 213.237 14.2319 213.328 14.1979L213.566 15.8299C213.35 15.9433 213.107 16.0283 212.835 16.0849C212.563 16.1416 212.274 16.1699 211.968 16.1699ZM217.085 16.1699C216.575 16.1699 216.144 16.0906 215.793 15.9319C215.441 15.7733 215.175 15.5353 214.994 15.2179C214.812 14.8893 214.722 14.4813 214.722 13.9939V6.68393H217.272V13.6879C217.272 13.9033 217.317 14.0619 217.408 14.1639C217.51 14.2659 217.663 14.3169 217.867 14.3169C217.957 14.3169 218.054 14.3056 218.156 14.2829C218.258 14.2603 218.354 14.2319 218.445 14.1979L218.683 15.8299C218.467 15.9433 218.224 16.0283 217.952 16.0849C217.68 16.1416 217.391 16.1699 217.085 16.1699Z" fill="#F8F8F8"/>
<path d="M224.34 16.2209C222.866 16.2209 221.795 15.8809 221.127 15.2009C220.469 14.5096 220.141 13.5123 220.141 12.2089V6.68393H222.691V12.3449C222.691 12.9456 222.821 13.4046 223.082 13.7219C223.354 14.0279 223.773 14.1809 224.34 14.1809C224.906 14.1809 225.32 14.0279 225.581 13.7219C225.853 13.4046 225.989 12.9456 225.989 12.3449V6.68393H228.539V12.2089C228.539 13.5123 228.204 14.5096 227.536 15.2009C226.878 15.8809 225.813 16.2209 224.34 16.2209Z" fill="#F8F8F8"/>
<path d="M235.114 16.2209C233.641 16.2209 232.57 15.8809 231.901 15.2009C231.244 14.5096 230.915 13.5123 230.915 12.2089V6.68393H233.465V12.3449C233.465 12.9456 233.595 13.4046 233.856 13.7219C234.128 14.0279 234.547 14.1809 235.114 14.1809C235.681 14.1809 236.094 14.0279 236.355 13.7219C236.627 13.4046 236.763 12.9456 236.763 12.3449V6.68393H239.313V12.2089C239.313 13.5123 238.979 14.5096 238.31 15.2009C237.653 15.8809 236.587 16.2209 235.114 16.2209Z" fill="#F8F8F8"/>
<path d="M190.203 37.1699C189.693 37.1699 189.262 37.0906 188.911 36.9319C188.56 36.7733 188.293 36.5353 188.112 36.2179C187.931 35.8893 187.84 35.4813 187.84 34.9939V27.6839H190.39V34.6879C190.39 34.9033 190.435 35.0619 190.526 35.1639C190.628 35.2659 190.781 35.3169 190.985 35.3169C191.076 35.3169 191.172 35.3056 191.274 35.2829C191.376 35.2603 191.472 35.2319 191.563 35.1979L191.801 36.8299C191.586 36.9433 191.342 37.0283 191.07 37.0849C190.798 37.1416 190.509 37.1699 190.203 37.1699Z" fill="#F8F8F8"/>
<path d="M194.028 36.9999V33.0899H193.059V31.5259H196.323V35.0619H196.442C196.816 35.0619 197.133 34.9599 197.394 34.7559C197.666 34.5519 197.87 34.2516 198.006 33.8549C198.142 33.4469 198.21 32.9369 198.21 32.3249C198.21 31.6223 198.108 31.0669 197.904 30.6589C197.711 30.2396 197.422 29.9393 197.037 29.7579C196.651 29.5766 196.175 29.4859 195.609 29.4859C195.019 29.4859 194.487 29.5709 194.011 29.7409C193.535 29.8996 193.11 30.0923 192.736 30.3189V28.1939C193.11 28.0013 193.58 27.8313 194.147 27.6839C194.713 27.5366 195.365 27.4629 196.102 27.4629C197.201 27.4629 198.091 27.6386 198.771 27.9899C199.462 28.3413 199.972 28.8739 200.301 29.5879C200.629 30.3019 200.794 31.1973 200.794 32.2739C200.794 33.2826 200.641 34.1439 200.335 34.8579C200.04 35.5606 199.553 36.0933 198.873 36.4559C198.204 36.8186 197.309 36.9999 196.187 36.9999H194.028Z" fill="#F8F8F8"/>
<path d="M195.208 26.4089V25.5589C195.367 25.5136 195.542 25.4513 195.735 25.3719C195.928 25.2926 196.098 25.1849 196.245 25.0489C196.392 24.9129 196.466 24.7429 196.466 24.5389C196.466 24.3803 196.421 24.2556 196.33 24.1649C196.239 24.0743 196.126 24.0289 195.99 24.0289C195.899 24.0289 195.803 24.0459 195.701 24.0799C195.599 24.1139 195.508 24.1479 195.429 24.1819L195.106 23.0429C195.333 22.8503 195.616 22.7256 195.956 22.6689C196.285 22.6009 196.562 22.5669 196.789 22.5669C197.299 22.5669 197.701 22.6859 197.996 22.9239C198.279 23.1619 198.421 23.5133 198.421 23.9779C198.421 24.2273 198.359 24.4596 198.234 24.6749C198.098 24.8903 197.894 25.0659 197.622 25.2019L197.554 24.7599H200.767V26.4089H195.208Z" fill="#F8F8F8"/>
<path d="M205.224 36.9999V30.8459C205.224 30.3699 205.11 30.0243 204.884 29.8089C204.668 29.5936 204.311 29.4859 203.813 29.4859C203.439 29.4859 203.093 29.5369 202.776 29.6389C202.47 29.7409 202.181 29.8656 201.909 30.0129V27.9729C202.158 27.8596 202.509 27.7463 202.963 27.6329C203.416 27.5196 203.949 27.4629 204.561 27.4629C205.184 27.4629 205.734 27.5536 206.21 27.7349C206.697 27.9163 207.077 28.2223 207.349 28.6529C207.632 29.0723 207.774 29.6503 207.774 30.3869V36.9999H205.224Z" fill="#F8F8F8"/>
<path d="M213.971 37.2209C212.702 37.2209 211.744 36.9376 211.098 36.3709C210.452 35.8043 210.129 34.9769 210.129 33.8889V33.2089C210.129 32.7443 210.192 32.3646 210.316 32.0699C210.441 31.7639 210.594 31.4863 210.775 31.2369C210.957 30.9876 211.104 30.7666 211.217 30.5739C211.342 30.3699 211.404 30.1603 211.404 29.9449C211.404 29.7409 211.353 29.5993 211.251 29.5199C211.161 29.4293 211.036 29.3839 210.877 29.3839C210.764 29.3839 210.645 29.4009 210.52 29.4349C210.407 29.4689 210.277 29.5199 210.129 29.5879L209.721 27.9899C210.039 27.8199 210.379 27.7066 210.741 27.6499C211.115 27.5819 211.444 27.5479 211.727 27.5479C212.226 27.5479 212.623 27.6273 212.917 27.7859C213.223 27.9446 213.444 28.1713 213.58 28.4659C213.716 28.7606 213.784 29.1119 213.784 29.5199C213.784 29.8713 213.733 30.1829 213.631 30.4549C213.529 30.7156 213.399 30.9876 213.24 31.2709C213.093 31.5316 212.957 31.7753 212.832 32.0019C212.719 32.2286 212.662 32.5573 212.662 32.9879V33.6679C212.662 34.0306 212.713 34.3309 212.815 34.5689C212.929 34.7956 213.082 34.9656 213.274 35.0789C213.478 35.1809 213.716 35.2319 213.988 35.2319C214.43 35.2319 214.759 35.1073 214.974 34.8579C215.19 34.5973 215.297 34.2289 215.297 33.7529V27.6839H217.83V33.8209C217.83 34.9429 217.502 35.7929 216.844 36.3709C216.187 36.9376 215.229 37.2209 213.971 37.2209Z" fill="#F8F8F8"/>
<path d="M223.913 37.2209C222.53 37.2209 221.505 36.8866 220.836 36.2179C220.167 35.5379 219.833 34.5349 219.833 33.2089C219.833 32.9823 219.839 32.7103 219.85 32.3929C219.873 32.0643 219.901 31.7753 219.935 31.5259H224.015V33.1409H222.332V33.3789C222.332 33.8323 222.389 34.2063 222.502 34.5009C222.615 34.7843 222.785 34.9939 223.012 35.1299C223.25 35.2659 223.545 35.3339 223.896 35.3339C224.281 35.3339 224.604 35.2489 224.865 35.0789C225.137 34.9089 225.341 34.6199 225.477 34.2119C225.624 33.8039 225.698 33.2429 225.698 32.5289C225.698 31.8603 225.619 31.3049 225.46 30.8629C225.313 30.4096 225.058 30.0696 224.695 29.8429C224.344 29.6163 223.856 29.5029 223.233 29.5029C222.893 29.5029 222.542 29.5426 222.179 29.6219C221.816 29.6899 221.471 29.7806 221.142 29.8939C220.825 30.0073 220.547 30.1319 220.309 30.2679V28.1429C220.558 28.0069 220.864 27.8879 221.227 27.7859C221.601 27.6839 222.003 27.6046 222.434 27.5479C222.865 27.4913 223.29 27.4629 223.709 27.4629C224.808 27.4629 225.692 27.6669 226.361 28.0749C227.041 28.4716 227.534 29.0383 227.84 29.7749C228.157 30.5116 228.316 31.3843 228.316 32.3929C228.316 33.4243 228.163 34.3026 227.857 35.0279C227.562 35.7419 227.092 36.2859 226.446 36.6599C225.8 37.0339 224.956 37.2209 223.913 37.2209Z" fill="#F8F8F8"/>
<path d="M231.882 36.9999L229.179 27.6839H231.746L233.803 34.9429H233.905C234.086 34.9429 234.256 34.8919 234.415 34.7899C234.574 34.6879 234.71 34.5519 234.823 34.3819C235.05 34.0646 235.22 33.6906 235.333 33.2599C235.446 32.8179 235.503 32.3816 235.503 31.9509C235.503 31.1916 235.356 30.6079 235.061 30.1999C234.778 29.7919 234.381 29.5879 233.871 29.5879C233.769 29.5879 233.673 29.5936 233.582 29.6049C233.503 29.6163 233.429 29.6389 233.361 29.6729L232.885 27.7179C233.146 27.6386 233.389 27.5933 233.616 27.5819C233.854 27.5593 234.047 27.5479 234.194 27.5479C234.795 27.5479 235.316 27.6273 235.758 27.7859C236.2 27.9446 236.58 28.1826 236.897 28.4999C237.294 28.8853 237.588 29.3669 237.781 29.9449C237.985 30.5229 238.087 31.1746 238.087 31.8999C238.087 32.8179 237.94 33.6226 237.645 34.3139C237.362 34.9939 237.016 35.5323 236.608 35.9289C236.268 36.2576 235.837 36.5183 235.316 36.7109C234.806 36.9036 234.103 36.9999 233.208 36.9999H231.882Z" fill="#F8F8F8"/>
<defs>
<clipPath id="clip0_420_10590">
<rect width="57.3949" height="40" fill="white"/>
</clipPath>
</defs>
</svg>
